<svg width="273" height="60" viewBox="0 0 273 60" fill="none" xmlns="http://www.w3.org/2000/svg">
<path d="M101.709 50.9942L100.124 49.4111C99.7366 49.5174 99.3413 49.5705 98.9385 49.5705C98.2013 49.5705 97.5286 49.3997 96.9206 49.058C96.3125 48.7087 95.8299 48.2266 95.4727 47.6115C95.123 46.9889 94.9482 46.2904 94.9482 45.5159C94.9482 44.7414 95.123 44.0466 95.4727 43.4316C95.8299 42.809 96.3125 42.3269 96.9206 41.9852C97.5286 41.6359 98.2013 41.4613 98.9385 41.4613C99.6834 41.4613 100.36 41.6359 100.968 41.9852C101.576 42.3269 102.055 42.8052 102.404 43.4202C102.754 44.0353 102.929 44.7338 102.929 45.5159C102.929 46.2752 102.762 46.9585 102.427 47.566C102.093 48.1734 101.633 48.6518 101.048 49.001L103.054 50.9942H101.709ZM96.0085 45.5159C96.0085 46.1461 96.1339 46.7004 96.3847 47.1787C96.6432 47.6571 96.9928 48.0254 97.4336 48.2835C97.882 48.5417 98.3837 48.6708 98.9385 48.6708C99.4934 48.6708 99.9912 48.5417 100.432 48.2835C100.88 48.0254 101.23 47.6571 101.481 47.1787C101.739 46.7004 101.869 46.1461 101.869 45.5159C101.869 44.8781 101.739 44.3238 101.481 43.853C101.23 43.3747 100.884 43.0064 100.443 42.7483C100.003 42.4901 99.501 42.361 98.9385 42.361C98.3761 42.361 97.8745 42.4901 97.4336 42.7483C96.9928 43.0064 96.6432 43.3747 96.3847 43.853C96.1339 44.3238 96.0085 44.8781 96.0085 45.5159Z" fill="white"/>
<path d="M109.018 47.7254H105.552L104.914 49.4908H103.819L106.692 41.5979H107.889L110.751 49.4908H109.656L109.018 47.7254ZM108.721 46.8826L107.285 42.8735L105.848 46.8826H108.721Z" fill="white"/>
<path d="M118.251 49.4908H117.213L113.04 43.1697V49.4908H112.003V41.541H113.04L117.213 47.8507V41.541H118.251V49.4908Z" fill="white"/>
<path d="M122.493 41.5524C123.359 41.5524 124.108 41.7156 124.739 42.0421C125.377 42.361 125.864 42.8204 126.198 43.4202C126.54 44.0201 126.711 44.7262 126.711 45.5387C126.711 46.3511 126.54 47.0573 126.198 47.6571C125.864 48.2493 125.377 48.7049 124.739 49.0238C124.108 49.3351 123.359 49.4908 122.493 49.4908H120.019V41.5524H122.493ZM122.493 48.6366C123.519 48.6366 124.302 48.367 124.842 47.8279C125.381 47.2812 125.651 46.5182 125.651 45.5387C125.651 44.5516 125.377 43.7809 124.83 43.2266C124.291 42.6723 123.512 42.3952 122.493 42.3952H121.057V48.6366H122.493Z" fill="white"/>
<path d="M131.682 49.5705C130.945 49.5705 130.273 49.3997 129.664 49.058C129.056 48.7087 128.574 48.2266 128.217 47.6115C127.867 46.9889 127.692 46.2904 127.692 45.5159C127.692 44.7414 127.867 44.0466 128.217 43.4316C128.574 42.809 129.056 42.3269 129.664 41.9852C130.273 41.6359 130.945 41.4613 131.682 41.4613C132.427 41.4613 133.104 41.6359 133.712 41.9852C134.32 42.3269 134.799 42.8052 135.148 43.4202C135.498 44.0353 135.673 44.7338 135.673 45.5159C135.673 46.298 135.498 46.9965 135.148 47.6115C134.799 48.2266 134.32 48.7087 133.712 49.058C133.104 49.3997 132.427 49.5705 131.682 49.5705ZM131.682 48.6708C132.237 48.6708 132.735 48.5417 133.176 48.2835C133.624 48.0254 133.974 47.6571 134.225 47.1787C134.483 46.7004 134.612 46.1461 134.612 45.5159C134.612 44.8781 134.483 44.3238 134.225 43.853C133.974 43.3747 133.628 43.0064 133.187 42.7483C132.747 42.4901 132.245 42.361 131.682 42.361C131.12 42.361 130.618 42.4901 130.178 42.7483C129.737 43.0064 129.387 43.3747 129.129 43.853C128.878 44.3238 128.752 44.8781 128.752 45.5159C128.752 46.1461 128.878 46.7004 129.129 47.1787C129.387 47.6571 129.737 48.0254 130.178 48.2835C130.626 48.5417 131.128 48.6708 131.682 48.6708Z" fill="white"/>
<path d="M138.08 48.648H140.862V49.4908H137.042V41.5524H138.08V48.648Z" fill="white"/>
<path d="M146.661 47.7254H143.195L142.556 49.4908H141.462L144.335 41.5979H145.532L148.393 49.4908H147.299L146.661 47.7254ZM146.364 46.8826L144.928 42.8735L143.491 46.8826H146.364Z" fill="white"/>
<path d="M154.537 41.5524V42.3952H152.37V49.4908H151.333V42.3952H149.155V41.5524H154.537Z" fill="white"/>
<path d="M166.913 41.6093V49.4908H165.876V43.6139L163.254 49.4908H162.524L159.891 43.6025V49.4908H158.853V41.6093H159.97L162.889 48.1241L165.808 41.6093H166.913Z" fill="white"/>
<path d="M173.37 47.7254H169.904L169.266 49.4908H168.171L171.044 41.5979H172.241L175.103 49.4908H174.008L173.37 47.7254ZM173.074 46.8826L171.637 42.8735L170.201 46.8826H173.074Z" fill="white"/>
<path d="M182.477 41.5524V49.4908H181.44V45.8917H177.393V49.4908H176.355V41.5524H177.393V45.0375H181.44V41.5524H182.477Z" fill="white"/>
<path d="M186.768 49.5705C186.244 49.5705 185.773 49.4794 185.355 49.2972C184.944 49.1073 184.621 48.8492 184.386 48.5227C184.15 48.1886 184.028 47.8052 184.021 47.3724H185.127C185.165 47.7444 185.317 48.0595 185.583 48.3177C185.856 48.5683 186.252 48.6935 186.768 48.6935C187.262 48.6935 187.65 48.572 187.931 48.3291C188.22 48.0785 188.364 47.7596 188.364 47.3724C188.364 47.0686 188.281 46.8219 188.114 46.6321C187.946 46.4422 187.737 46.298 187.487 46.1993C187.236 46.1005 186.898 45.9942 186.472 45.8804C185.948 45.7437 185.526 45.607 185.206 45.4703C184.895 45.3337 184.625 45.1211 184.397 44.8325C184.177 44.5364 184.066 44.1416 184.066 43.648C184.066 43.2152 184.177 42.8318 184.397 42.4977C184.617 42.1636 184.925 41.9054 185.32 41.7232C185.723 41.541 186.183 41.4499 186.7 41.4499C187.445 41.4499 188.053 41.6359 188.524 42.0079C189.003 42.38 189.273 42.8735 189.334 43.4886H188.193C188.155 43.1849 187.996 42.9191 187.715 42.6913C187.433 42.4559 187.061 42.3382 186.597 42.3382C186.164 42.3382 185.811 42.4521 185.537 42.6799C185.263 42.9001 185.127 43.2114 185.127 43.6139C185.127 43.9024 185.206 44.1378 185.366 44.32C185.533 44.5022 185.735 44.6427 185.97 44.7414C186.214 44.8325 186.552 44.9388 186.985 45.0603C187.509 45.2046 187.931 45.3488 188.25 45.4931C188.57 45.6298 188.843 45.8462 189.071 46.1423C189.299 46.4308 189.413 46.8257 189.413 47.3268C189.413 47.714 189.311 48.0785 189.106 48.4202C188.9 48.7619 188.596 49.039 188.193 49.2516C187.791 49.4642 187.316 49.5705 186.768 49.5705Z" fill="white"/>
<path d="M191.955 41.5524V46.5751C191.955 47.2812 192.126 47.8052 192.468 48.1468C192.817 48.4885 193.3 48.6594 193.916 48.6594C194.524 48.6594 194.999 48.4885 195.341 48.1468C195.69 47.8052 195.865 47.2812 195.865 46.5751V41.5524H196.903V46.5637C196.903 47.2243 196.77 47.7824 196.504 48.238C196.238 48.6859 195.877 49.02 195.421 49.2402C194.972 49.4604 194.467 49.5705 193.904 49.5705C193.342 49.5705 192.833 49.4604 192.377 49.2402C191.928 49.02 191.571 48.6859 191.305 48.238C191.047 47.7824 190.917 47.2243 190.917 46.5637V41.5524H191.955Z" fill="white"/>
<path d="M199.671 48.648H202.453V49.4908H198.633V41.5524H199.671V48.648Z" fill="white"/>
<path d="M207.157 49.5705C206.42 49.5705 205.747 49.3997 205.139 49.058C204.531 48.7087 204.049 48.2266 203.691 47.6115C203.342 46.9889 203.167 46.2904 203.167 45.5159C203.167 44.7414 203.342 44.0466 203.691 43.4316C204.049 42.809 204.531 42.3269 205.139 41.9852C205.747 41.6359 206.42 41.4613 207.157 41.4613C207.902 41.4613 208.578 41.6359 209.186 41.9852C209.795 42.3269 210.273 42.8052 210.623 43.4202C210.973 44.0353 211.147 44.7338 211.147 45.5159C211.147 46.298 210.973 46.9965 210.623 47.6115C210.273 48.2266 209.795 48.7087 209.186 49.058C208.578 49.3997 207.902 49.5705 207.157 49.5705ZM207.157 48.6708C207.712 48.6708 208.21 48.5417 208.651 48.2835C209.099 48.0254 209.449 47.6571 209.7 47.1787C209.958 46.7004 210.087 46.1461 210.087 45.5159C210.087 44.8781 209.958 44.3238 209.7 43.853C209.449 43.3747 209.103 43.0064 208.662 42.7483C208.221 42.4901 207.72 42.361 207.157 42.361C206.595 42.361 206.093 42.4901 205.652 42.7483C205.211 43.0064 204.862 43.3747 204.603 43.853C204.353 44.3238 204.227 44.8781 204.227 45.5159C204.227 46.1461 204.353 46.7004 204.603 47.1787C204.862 47.6571 205.211 48.0254 205.652 48.2835C206.101 48.5417 206.602 48.6708 207.157 48.6708Z" fill="white"/>
<path d="M217.408 41.5524V42.3952H215.242V49.4908H214.204V42.3952H212.027V41.5524H217.408Z" fill="white"/>
<path d="M219.723 48.648H222.504V49.4908H218.685V41.5524H219.723V48.648Z" fill="white"/>
<path d="M228.303 47.7254H224.837L224.199 49.4908H223.104L225.977 41.5979H227.175L230.036 49.4908H228.942L228.303 47.7254ZM228.007 46.8826L226.57 42.8735L225.134 46.8826H228.007Z" fill="white"/>
<path d="M235.472 49.4908L233.58 46.2448H232.326V49.4908H231.288V41.5524H233.853C234.454 41.5524 234.959 41.6549 235.37 41.8599C235.788 42.0649 236.099 42.342 236.305 42.6913C236.51 43.0406 236.612 43.4392 236.612 43.8872C236.612 44.4339 236.453 44.916 236.134 45.3337C235.822 45.7513 235.351 46.0284 234.72 46.1651L236.715 49.4908H235.472ZM232.326 45.4134H233.853C234.416 45.4134 234.838 45.2767 235.119 45.0034C235.4 44.7224 235.541 44.3504 235.541 43.8872C235.541 43.4164 235.4 43.052 235.119 42.7938C234.845 42.5357 234.424 42.4066 233.853 42.4066H232.326V45.4134Z" fill="white"/>
<path d="M239.262 41.5524V49.4908H238.225V41.5524H239.262Z" fill="white"/>
<path d="M21.3523 18.2561C25.9114 18.2561 30.1702 18.0925 34.4017 18.3107C37.159 18.447 39.2338 19.9198 40.0801 22.7016C40.9264 25.4561 39.7798 27.5561 37.6231 29.3561C37.8142 29.5198 37.9507 29.7107 38.1418 29.8198C40.981 31.4561 41.9365 33.3652 41.4997 36.447C41.1448 38.9289 39.0973 41.247 36.1489 41.438C31.3168 41.7379 26.4301 41.5198 21.3796 41.5198C21.3796 38.6834 21.3796 35.6834 21.3796 32.4925C16.4929 32.4925 11.8246 32.4925 7.21087 32.4925C3.96217 23.2743 13.1896 9.80158 24.7375 6.61067C38.9881 2.6834 51.1366 12.5834 53.5936 21.8016C52.174 21.8016 50.7544 21.9652 49.4167 21.7198C48.7342 21.5834 48.0244 20.8198 47.6149 20.1652C43.6291 13.8925 38.0326 10.6743 30.5524 10.7561C21.2431 10.8652 13.2715 17.847 11.9611 27.3107C15.046 27.3107 18.1036 27.3107 21.325 27.3107C21.3523 24.338 21.3523 21.3652 21.3523 18.2561ZM28.8325 31.9743C28.8325 30.447 28.8325 29.0834 28.8325 27.7198C30.2521 27.638 31.5625 27.6925 32.8183 27.5016C34.0195 27.3107 34.975 26.6834 34.9477 25.2107C34.9477 23.7107 33.9649 23.0834 32.7364 23.0016C30.7435 22.8652 28.7506 22.9743 26.7031 22.9743C26.7031 27.747 26.7031 32.3834 26.7031 37.1289C29.0782 37.1289 31.3441 37.2107 33.5827 37.1016C35.0296 37.047 36.2581 36.3652 36.2854 34.7016C36.3127 33.1743 35.2753 32.438 33.8284 32.3016C32.1904 32.1652 30.5524 32.0834 28.8325 31.9743Z" fill="white"/>
<path d="M8.90347 39.5561C8.65777 38.9016 9.12187 38.1925 9.83167 38.1652C10.7872 38.138 11.6881 38.1107 12.589 38.2743C13.2715 38.3834 13.9813 39.1198 14.3635 39.7743C20.3695 49.4016 32.4361 52.2107 41.7454 46.0743C46.1953 43.1289 48.898 39.0925 50.0173 33.7198C50.1538 33.0925 49.6897 32.4925 49.0345 32.4652C47.9698 32.4379 46.9597 32.6289 45.9769 32.4925C44.5027 32.3016 44.0386 31.947 42.5371 30.8834C42.2368 30.6652 41.9911 30.3925 41.7727 30.038C41.527 29.6016 41.4451 29.247 41.527 28.7834C41.7181 27.6652 42.8101 27.447 44.1205 27.5016C47.4511 27.6107 50.7817 27.5561 54.085 27.5289C54.5491 27.5289 54.9586 27.8289 55.0678 28.2652C57.4156 37.347 48.9799 49.947 38.3056 53.1107C23.9731 57.3925 12.3433 48.5561 8.90347 39.5561Z" fill="white"/>
<path d="M72.8745 25.5425C73.5554 25.6499 74.1735 25.9274 74.729 26.3749C75.3023 26.8223 75.7503 27.3772 76.0728 28.0395C76.4132 28.7018 76.5835 29.4089 76.5835 30.1607C76.5835 31.1094 76.3416 31.9686 75.8578 32.7383C75.374 33.4901 74.6663 34.0897 73.7345 34.5372C72.8207 34.9668 71.7367 35.1816 70.4824 35.1816H63.4945V16.4673H70.2137C71.4858 16.4673 72.5699 16.6821 73.4658 17.1117C74.3616 17.5234 75.0336 18.0872 75.4815 18.8032C75.9295 19.5192 76.1534 20.3247 76.1534 21.2197C76.1534 22.3295 75.8488 23.2513 75.2396 23.9852C74.6483 24.7012 73.86 25.2203 72.8745 25.5425ZM65.9403 24.5491H70.0524C71.1992 24.5491 72.0861 24.2806 72.7132 23.7436C73.3403 23.2066 73.6539 22.4637 73.6539 21.515C73.6539 20.5663 73.3403 19.8235 72.7132 19.2865C72.0861 18.7495 71.1812 18.481 69.9987 18.481H65.9403V24.5491ZM70.2674 33.1679C71.4858 33.1679 72.4355 32.8815 73.1164 32.3087C73.7972 31.7359 74.1377 30.9393 74.1377 29.919C74.1377 28.8808 73.7793 28.0664 73.0626 27.4757C72.3459 26.8671 71.3873 26.5628 70.1868 26.5628H65.9403V33.1679H70.2674Z" fill="white"/>
<path d="M82.3695 16.4673V28.308C82.3695 29.9727 82.7727 31.2078 83.5789 32.0133C84.4032 32.8188 85.5409 33.2216 86.9923 33.2216C88.4257 33.2216 89.5456 32.8188 90.3519 32.0133C91.1761 31.2078 91.5882 29.9727 91.5882 28.308V16.4673H94.034V28.2812C94.034 29.8385 93.7204 31.1541 93.0933 32.2281C92.4662 33.2842 91.6151 34.0718 90.54 34.5909C89.4829 35.11 88.2913 35.3696 86.9654 35.3696C85.6395 35.3696 84.439 35.11 83.3639 34.5909C82.3068 34.0718 81.4647 33.2842 80.8375 32.2281C80.2283 31.1541 79.9237 29.8385 79.9237 28.2812V16.4673H82.3695Z" fill="white"/>
<path d="M112.842 35.1816H110.397L100.56 20.2799V35.1816H98.114V16.4404H100.56L110.397 31.3152V16.4404H112.842V35.1816Z" fill="white"/>
<path d="M130.127 16.4673L124.026 28.1201V35.1816H121.581V28.1201L115.453 16.4673H118.167L122.79 25.9453L127.413 16.4673H130.127Z" fill="white"/>
<path d="M141.2 35.3696C139.462 35.3696 137.877 34.9668 136.443 34.1613C135.01 33.3379 133.872 32.2013 133.03 30.7514C132.206 29.2836 131.793 27.6368 131.793 25.811C131.793 23.9852 132.206 22.3474 133.03 20.8975C133.872 19.4297 135.01 18.293 136.443 17.4876C137.877 16.6642 139.462 16.2525 141.2 16.2525C142.956 16.2525 144.551 16.6642 145.984 17.4876C147.418 18.293 148.547 19.4207 149.371 20.8706C150.195 22.3205 150.607 23.9673 150.607 25.811C150.607 27.6547 150.195 29.3015 149.371 30.7514C148.547 32.2013 147.418 33.3379 145.984 34.1613C144.551 34.9668 142.956 35.3696 141.2 35.3696ZM141.2 33.2484C142.508 33.2484 143.682 32.9441 144.721 32.3355C145.778 31.7269 146.602 30.8588 147.194 29.7311C147.803 28.6034 148.108 27.2967 148.108 25.811C148.108 24.3074 147.803 23.0007 147.194 21.8909C146.602 20.7632 145.787 19.8951 144.748 19.2865C143.709 18.6779 142.526 18.3736 141.2 18.3736C139.874 18.3736 138.692 18.6779 137.653 19.2865C136.613 19.8951 135.789 20.7632 135.18 21.8909C134.589 23.0007 134.293 24.3074 134.293 25.811C134.293 27.2967 134.589 28.6034 135.18 29.7311C135.789 30.8588 136.613 31.7269 137.653 32.3355C138.71 32.9441 139.892 33.2484 141.2 33.2484Z" fill="white"/>
<path d="M159.668 16.4673C161.711 16.4673 163.476 16.8521 164.963 17.6218C166.468 18.3736 167.615 19.4565 168.403 20.8706C169.209 22.2847 169.612 23.9494 169.612 25.8647C169.612 27.78 169.209 29.4447 168.403 30.8588C167.615 32.255 166.468 33.329 164.963 34.0808C163.476 34.8147 161.711 35.1816 159.668 35.1816H153.836V16.4673H159.668ZM159.668 33.1679C162.087 33.1679 163.933 32.5324 165.205 31.2615C166.477 29.9727 167.113 28.1738 167.113 25.8647C167.113 23.5377 166.468 21.7209 165.178 20.4142C163.906 19.1075 162.069 18.4541 159.668 18.4541H156.282V33.1679H159.668Z" fill="white"/>
<path d="M188.497 35.3696C186.759 35.3696 185.173 34.9668 183.74 34.1613C182.306 33.3379 181.169 32.2013 180.326 30.7514C179.502 29.2836 179.09 27.6368 179.09 25.811C179.09 23.9852 179.502 22.3474 180.326 20.8975C181.169 19.4297 182.306 18.293 183.74 17.4876C185.173 16.6642 186.759 16.2525 188.497 16.2525C190.253 16.2525 191.848 16.6642 193.281 17.4876C194.714 18.293 195.843 19.4207 196.667 20.8706C197.492 22.3205 197.904 23.9673 197.904 25.811C197.904 27.6547 197.492 29.3015 196.667 30.7514C195.843 32.2013 194.714 33.3379 193.281 34.1613C191.848 34.9668 190.253 35.3696 188.497 35.3696ZM188.497 33.2484C189.805 33.2484 190.979 32.9441 192.018 32.3355C193.075 31.7269 193.899 30.8588 194.49 29.7311C195.1 28.6034 195.404 27.2967 195.404 25.811C195.404 24.3074 195.1 23.0007 194.49 21.8909C193.899 20.7632 193.084 19.8951 192.045 19.2865C191.005 18.6779 189.823 18.3736 188.497 18.3736C187.171 18.3736 185.988 18.6779 184.949 19.2865C183.91 19.8951 183.086 20.7632 182.477 21.8909C181.885 23.0007 181.59 24.3074 181.59 25.811C181.59 27.2967 181.885 28.6034 182.477 29.7311C183.086 30.8588 183.91 31.7269 184.949 32.3355C186.006 32.9441 187.189 33.2484 188.497 33.2484Z" fill="white"/>
<path d="M213.657 21.9446C213.657 23.5019 213.12 24.7997 212.044 25.8379C210.987 26.8582 209.366 27.3683 207.18 27.3683H203.578V35.1816H201.133V16.4673H207.18C209.294 16.4673 210.898 16.9774 211.991 17.9977C213.102 19.018 213.657 20.3336 213.657 21.9446ZM207.18 25.3546C208.542 25.3546 209.545 25.0592 210.19 24.4685C210.835 23.8778 211.158 23.0365 211.158 21.9446C211.158 19.6355 209.832 18.481 207.18 18.481H203.578V25.3546H207.18Z" fill="white"/>
<path d="M228.227 16.4673V18.4541H223.12V35.1816H220.675V18.4541H215.541V16.4673H228.227Z" fill="white"/>
<path d="M239.731 35.3696C237.993 35.3696 236.407 34.9668 234.973 34.1613C233.54 33.3379 232.402 32.2013 231.56 30.7514C230.736 29.2836 230.324 27.6368 230.324 25.811C230.324 23.9852 230.736 22.3474 231.56 20.8975C232.402 19.4297 233.54 18.293 234.973 17.4876C236.407 16.6642 237.993 16.2525 239.731 16.2525C241.487 16.2525 243.081 16.6642 244.515 17.4876C245.948 18.293 247.077 19.4207 247.901 20.8706C248.725 22.3205 249.137 23.9673 249.137 25.811C249.137 27.6547 248.725 29.3015 247.901 30.7514C247.077 32.2013 245.948 33.3379 244.515 34.1613C243.081 34.9668 241.487 35.3696 239.731 35.3696ZM239.731 33.2484C241.039 33.2484 242.212 32.9441 243.251 32.3355C244.309 31.7269 245.133 30.8588 245.724 29.7311C246.333 28.6034 246.638 27.2967 246.638 25.811C246.638 24.3074 246.333 23.0007 245.724 21.8909C245.133 20.7632 244.318 19.8951 243.278 19.2865C242.239 18.6779 241.057 18.3736 239.731 18.3736C238.405 18.3736 237.222 18.6779 236.183 19.2865C235.144 19.8951 234.319 20.7632 233.71 21.8909C233.119 23.0007 232.823 24.3074 232.823 25.811C232.823 27.2967 233.119 28.6034 233.71 29.7311C234.319 30.8588 235.144 31.7269 236.183 32.3355C237.24 32.9441 238.423 33.2484 239.731 33.2484Z" fill="white"/>
<path d="M271.368 16.6015V35.1816H268.922V21.3271L262.741 35.1816H261.021L254.812 21.3002V35.1816H252.366V16.6015H255L261.881 31.9596L268.761 16.6015H271.368Z" fill="white"/>
</svg>
