<svg width="273" height="60" viewBox="0 0 273 60" fill="none" xmlns="http://www.w3.org/2000/svg">
<path d="M101.709 50.9944L100.124 49.4113C99.7363 49.5176 99.3411 49.5707 98.9383 49.5707C98.201 49.5707 97.5284 49.3999 96.9203 49.0582C96.3123 48.7089 95.8297 48.2268 95.4724 47.6118C95.1228 46.9891 94.948 46.2906 94.948 45.5161C94.948 44.7416 95.1228 44.0469 95.4724 43.4318C95.8297 42.8092 96.3123 42.3271 96.9203 41.9854C97.5284 41.6361 98.201 41.4615 98.9383 41.4615C99.6831 41.4615 100.36 41.6361 100.968 41.9854C101.576 42.3271 102.054 42.8054 102.404 43.4204C102.754 44.0355 102.929 44.734 102.929 45.5161C102.929 46.2754 102.761 46.9588 102.427 47.5662C102.092 48.1736 101.633 48.652 101.047 49.0013L103.054 50.9944H101.709ZM96.0083 45.5161C96.0083 46.1463 96.1337 46.7006 96.3845 47.179C96.6429 47.6573 96.9925 48.0256 97.4334 48.2837C97.8818 48.5419 98.3834 48.671 98.9383 48.671C99.4931 48.671 99.991 48.5419 100.432 48.2837C100.88 48.0256 101.23 47.6573 101.481 47.179C101.739 46.7006 101.868 46.1463 101.868 45.5161C101.868 44.8783 101.739 44.324 101.481 43.8532C101.23 43.3749 100.884 43.0066 100.443 42.7485C100.002 42.4903 99.5007 42.3612 98.9383 42.3612C98.3758 42.3612 97.8742 42.4903 97.4334 42.7485C96.9925 43.0066 96.6429 43.3749 96.3845 43.8532C96.1337 44.324 96.0083 44.8783 96.0083 45.5161Z" fill="#2E3192"/>
<path d="M109.018 47.7256H105.552L104.913 49.491H103.819L106.692 41.5981H107.889L110.75 49.491H109.656L109.018 47.7256ZM108.721 46.8828L107.285 42.8738L105.848 46.8828H108.721Z" fill="#2E3192"/>
<path d="M118.25 49.491H117.213L113.04 43.1699V49.491H112.003V41.5412H113.04L117.213 47.8509V41.5412H118.25V49.491Z" fill="#2E3192"/>
<path d="M122.493 41.5526C123.359 41.5526 124.108 41.7158 124.739 42.0423C125.377 42.3612 125.864 42.8206 126.198 43.4204C126.54 44.0203 126.711 44.7264 126.711 45.5389C126.711 46.3513 126.54 47.0575 126.198 47.6573C125.864 48.2496 125.377 48.7051 124.739 49.024C124.108 49.3354 123.359 49.491 122.493 49.491H120.019V41.5526H122.493ZM122.493 48.6368C123.519 48.6368 124.302 48.3673 124.841 47.8282C125.381 47.2815 125.651 46.5184 125.651 45.5389C125.651 44.5518 125.377 43.7811 124.83 43.2268C124.29 42.6725 123.511 42.3954 122.493 42.3954H121.056V48.6368H122.493Z" fill="#2E3192"/>
<path d="M131.682 49.5707C130.945 49.5707 130.272 49.3999 129.664 49.0582C129.056 48.7089 128.574 48.2268 128.216 47.6118C127.867 46.9891 127.692 46.2906 127.692 45.5161C127.692 44.7416 127.867 44.0469 128.216 43.4318C128.574 42.8092 129.056 42.3271 129.664 41.9854C130.272 41.6361 130.945 41.4615 131.682 41.4615C132.427 41.4615 133.103 41.6361 133.712 41.9854C134.32 42.3271 134.798 42.8054 135.148 43.4204C135.498 44.0355 135.672 44.734 135.672 45.5161C135.672 46.2982 135.498 46.9967 135.148 47.6118C134.798 48.2268 134.32 48.7089 133.712 49.0582C133.103 49.3999 132.427 49.5707 131.682 49.5707ZM131.682 48.671C132.237 48.671 132.735 48.5419 133.176 48.2837C133.624 48.0256 133.974 47.6573 134.225 47.179C134.483 46.7006 134.612 46.1463 134.612 45.5161C134.612 44.8783 134.483 44.324 134.225 43.8532C133.974 43.3749 133.628 43.0066 133.187 42.7485C132.746 42.4903 132.245 42.3612 131.682 42.3612C131.12 42.3612 130.618 42.4903 130.177 42.7485C129.736 43.0066 129.387 43.3749 129.128 43.8532C128.878 44.324 128.752 44.8783 128.752 45.5161C128.752 46.1463 128.878 46.7006 129.128 47.179C129.387 47.6573 129.736 48.0256 130.177 48.2837C130.626 48.5419 131.127 48.671 131.682 48.671Z" fill="#2E3192"/>
<path d="M138.08 48.6482H140.861V49.491H137.042V41.5526H138.08V48.6482Z" fill="#2E3192"/>
<path d="M146.66 47.7256H143.194L142.556 49.491H141.462L144.335 41.5981H145.532L148.393 49.491H147.299L146.66 47.7256ZM146.364 46.8828L144.927 42.8738L143.491 46.8828H146.364Z" fill="#2E3192"/>
<path d="M154.536 41.5526V42.3954H152.37V49.491H151.333V42.3954H149.155V41.5526H154.536Z" fill="#2E3192"/>
<path d="M166.913 41.6095V49.491H165.876V43.6141L163.254 49.491H162.524L159.89 43.6027V49.491H158.853V41.6095H159.97L162.889 48.1243L165.807 41.6095H166.913Z" fill="#2E3192"/>
<path d="M173.37 47.7256H169.904L169.265 49.491H168.171L171.044 41.5981H172.241L175.103 49.491H174.008L173.37 47.7256ZM173.073 46.8828L171.637 42.8738L170.2 46.8828H173.073Z" fill="#2E3192"/>
<path d="M182.477 41.5526V49.491H181.44V45.892H177.392V49.491H176.355V41.5526H177.392V45.0377H181.44V41.5526H182.477Z" fill="#2E3192"/>
<path d="M186.768 49.5707C186.244 49.5707 185.772 49.4796 185.354 49.2974C184.944 49.1076 184.621 48.8494 184.385 48.5229C184.15 48.1888 184.028 47.8054 184.021 47.3726H185.126C185.164 47.7446 185.316 48.0597 185.582 48.3179C185.856 48.5685 186.251 48.6938 186.768 48.6938C187.262 48.6938 187.65 48.5723 187.931 48.3293C188.22 48.0787 188.364 47.7598 188.364 47.3726C188.364 47.0689 188.281 46.8221 188.113 46.6323C187.946 46.4424 187.737 46.2982 187.486 46.1995C187.236 46.1008 186.897 45.9945 186.472 45.8806C185.947 45.7439 185.525 45.6072 185.206 45.4705C184.895 45.3339 184.625 45.1213 184.397 44.8327C184.176 44.5366 184.066 44.1418 184.066 43.6482C184.066 43.2154 184.176 42.832 184.397 42.4979C184.617 42.1638 184.925 41.9057 185.32 41.7234C185.723 41.5412 186.183 41.4501 186.7 41.4501C187.445 41.4501 188.053 41.6361 188.524 42.0082C189.003 42.3802 189.273 42.8738 189.333 43.4888H188.193C188.155 43.1851 187.996 42.9193 187.714 42.6915C187.433 42.4561 187.061 42.3385 186.597 42.3385C186.164 42.3385 185.81 42.4523 185.537 42.6801C185.263 42.9003 185.126 43.2116 185.126 43.6141C185.126 43.9026 185.206 44.138 185.366 44.3202C185.533 44.5024 185.734 44.6429 185.97 44.7416C186.213 44.8327 186.552 44.939 186.985 45.0605C187.509 45.2048 187.931 45.3491 188.25 45.4933C188.569 45.63 188.843 45.8464 189.071 46.1425C189.299 46.4311 189.413 46.8259 189.413 47.327C189.413 47.7143 189.311 48.0787 189.105 48.4204C188.9 48.7621 188.596 49.0392 188.193 49.2518C187.79 49.4644 187.315 49.5707 186.768 49.5707Z" fill="#2E3192"/>
<path d="M191.955 41.5526V46.5753C191.955 47.2815 192.126 47.8054 192.468 48.1471C192.817 48.4887 193.3 48.6596 193.915 48.6596C194.524 48.6596 194.999 48.4887 195.341 48.1471C195.69 47.8054 195.865 47.2815 195.865 46.5753V41.5526H196.902V46.5639C196.902 47.2245 196.769 47.7826 196.503 48.2382C196.237 48.6862 195.876 49.0202 195.42 49.2404C194.972 49.4606 194.467 49.5707 193.904 49.5707C193.342 49.5707 192.832 49.4606 192.376 49.2404C191.928 49.0202 191.571 48.6862 191.305 48.2382C191.046 47.7826 190.917 47.2245 190.917 46.5639V41.5526H191.955Z" fill="#2E3192"/>
<path d="M199.671 48.6482H202.452V49.491H198.633V41.5526H199.671V48.6482Z" fill="#2E3192"/>
<path d="M207.157 49.5707C206.42 49.5707 205.747 49.3999 205.139 49.0582C204.531 48.7089 204.048 48.2268 203.691 47.6118C203.341 46.9891 203.167 46.2906 203.167 45.5161C203.167 44.7416 203.341 44.0469 203.691 43.4318C204.048 42.8092 204.531 42.3271 205.139 41.9854C205.747 41.6361 206.42 41.4615 207.157 41.4615C207.902 41.4615 208.578 41.6361 209.186 41.9854C209.794 42.3271 210.273 42.8054 210.623 43.4204C210.972 44.0355 211.147 44.734 211.147 45.5161C211.147 46.2982 210.972 46.9967 210.623 47.6118C210.273 48.2268 209.794 48.7089 209.186 49.0582C208.578 49.3999 207.902 49.5707 207.157 49.5707ZM207.157 48.671C207.712 48.671 208.21 48.5419 208.65 48.2837C209.099 48.0256 209.448 47.6573 209.699 47.179C209.958 46.7006 210.087 46.1463 210.087 45.5161C210.087 44.8783 209.958 44.324 209.699 43.8532C209.448 43.3749 209.103 43.0066 208.662 42.7485C208.221 42.4903 207.719 42.3612 207.157 42.3612C206.594 42.3612 206.093 42.4903 205.652 42.7485C205.211 43.0066 204.862 43.3749 204.603 43.8532C204.352 44.324 204.227 44.8783 204.227 45.5161C204.227 46.1463 204.352 46.7006 204.603 47.179C204.862 47.6573 205.211 48.0256 205.652 48.2837C206.1 48.5419 206.602 48.671 207.157 48.671Z" fill="#2E3192"/>
<path d="M217.408 41.5526V42.3954H215.242V49.491H214.204V42.3954H212.027V41.5526H217.408Z" fill="#2E3192"/>
<path d="M219.722 48.6482H222.504V49.491H218.685V41.5526H219.722V48.6482Z" fill="#2E3192"/>
<path d="M228.303 47.7256H224.837L224.199 49.491H223.104L225.977 41.5981H227.174L230.036 49.491H228.941L228.303 47.7256ZM228.007 46.8828L226.57 42.8738L225.134 46.8828H228.007Z" fill="#2E3192"/>
<path d="M235.472 49.491L233.58 46.245H232.326V49.491H231.288V41.5526H233.853C234.454 41.5526 234.959 41.6551 235.37 41.8601C235.788 42.0651 236.099 42.3422 236.304 42.6915C236.51 43.0408 236.612 43.4394 236.612 43.8874C236.612 44.4341 236.453 44.9163 236.133 45.3339C235.822 45.7515 235.351 46.0286 234.72 46.1653L236.715 49.491H235.472ZM232.326 45.4136H233.853C234.416 45.4136 234.837 45.2769 235.119 45.0036C235.4 44.7226 235.541 44.3506 235.541 43.8874C235.541 43.4167 235.4 43.0522 235.119 42.794C234.845 42.5359 234.423 42.4068 233.853 42.4068H232.326V45.4136Z" fill="#2E3192"/>
<path d="M239.262 41.5526V49.491H238.224V41.5526H239.262Z" fill="#2E3192"/>
<path d="M21.352 18.2563C25.9111 18.2563 30.1699 18.0927 34.4014 18.3109C37.1587 18.4473 39.2335 19.92 40.0798 22.7018C40.9261 25.4563 39.7795 27.5563 37.6228 29.3563C37.8139 29.52 37.9504 29.7109 38.1415 29.82C40.9807 31.4564 41.9362 33.3654 41.4994 36.4473C41.1445 38.9291 39.097 41.2473 36.1486 41.4382C31.3165 41.7382 26.4298 41.52 21.3793 41.52C21.3793 38.6836 21.3793 35.6836 21.3793 32.4927C16.4926 32.4927 11.8243 32.4927 7.21062 32.4927C3.96192 23.2745 13.1893 9.80179 24.7372 6.61088C38.9878 2.68361 51.1363 12.5836 53.5933 21.8018C52.1737 21.8018 50.7541 21.9654 49.4164 21.72C48.7339 21.5836 48.0241 20.82 47.6146 20.1654C43.6288 13.8927 38.0323 10.6745 30.5521 10.7563C21.2428 10.8654 13.2712 17.8473 11.9608 27.3109C15.0457 27.3109 18.1033 27.3109 21.3247 27.3109C21.352 24.3382 21.352 21.3654 21.352 18.2563ZM28.8322 31.9745C28.8322 30.4473 28.8322 29.0836 28.8322 27.72C30.2518 27.6382 31.5622 27.6927 32.818 27.5018C34.0192 27.3109 34.9747 26.6836 34.9474 25.2109C34.9474 23.7109 33.9646 23.0836 32.7361 23.0018C30.7432 22.8654 28.7503 22.9745 26.7028 22.9745C26.7028 27.7472 26.7028 32.3836 26.7028 37.1291C29.0779 37.1291 31.3438 37.2109 33.5824 37.1018C35.0293 37.0472 36.2578 36.3654 36.2851 34.7018C36.3124 33.1745 35.275 32.4382 33.8281 32.3018C32.1901 32.1654 30.5521 32.0836 28.8322 31.9745Z" fill="#2E3192"/>
<path d="M8.90322 39.5563C8.65752 38.9018 9.12162 38.1927 9.83142 38.1654C10.7869 38.1382 11.6878 38.1109 12.5887 38.2745C13.2712 38.3836 13.981 39.12 14.3632 39.7745C20.3692 49.4018 32.4358 52.2109 41.7451 46.0745C46.195 43.1291 48.8977 39.0927 50.017 33.72C50.1535 33.0927 49.6894 32.4927 49.0342 32.4654C47.9695 32.4382 46.9594 32.6291 45.9766 32.4927C44.5024 32.3018 44.0383 31.9473 42.5368 30.8836C42.2365 30.6654 41.9908 30.3927 41.7724 30.0382C41.5267 29.6018 41.4448 29.2472 41.5267 28.7836C41.7178 27.6654 42.8098 27.4473 44.1202 27.5018C47.4508 27.6109 50.7814 27.5563 54.0847 27.5291C54.5488 27.5291 54.9583 27.8291 55.0675 28.2654C57.4153 37.3473 48.9796 49.9473 38.3053 53.1109C23.9728 57.3927 12.343 48.5563 8.90322 39.5563Z" fill="#2E3192"/>
<path d="M72.8742 25.5427C73.5551 25.6501 74.1733 25.9276 74.7287 26.3751C75.3021 26.8226 75.75 27.3775 76.0726 28.0398C76.413 28.7021 76.5832 29.4091 76.5832 30.1609C76.5832 31.1096 76.3413 31.9688 75.8575 32.7385C75.3738 33.4903 74.666 34.0899 73.7343 34.5374C72.8205 34.967 71.7364 35.1818 70.4822 35.1818H63.4943V16.4675H70.2134C71.4856 16.4675 72.5696 16.6823 73.4655 17.1119C74.3614 17.5236 75.0333 18.0874 75.4813 18.8034C75.9292 19.5194 76.1532 20.3249 76.1532 21.2199C76.1532 22.3297 75.8486 23.2515 75.2394 23.9854C74.6481 24.7014 73.8597 25.2205 72.8742 25.5427ZM65.94 24.5493H70.0522C71.1989 24.5493 72.0858 24.2808 72.713 23.7438C73.3401 23.2068 73.6536 22.4639 73.6536 21.5152C73.6536 20.5666 73.3401 19.8237 72.713 19.2867C72.0858 18.7497 71.181 18.4812 69.9984 18.4812H65.94V24.5493ZM70.2672 33.1681C71.4856 33.1681 72.4352 32.8817 73.1161 32.3089C73.797 31.7361 74.1374 30.9395 74.1374 29.9192C74.1374 28.8811 73.7791 28.0666 73.0624 27.4759C72.3457 26.8673 71.3871 26.563 70.1866 26.563H65.94V33.1681H70.2672Z" fill="#2E3192"/>
<path d="M82.3693 16.4675V28.3083C82.3693 29.9729 82.7724 31.208 83.5787 32.0135C84.4029 32.819 85.5407 33.2218 86.9921 33.2218C88.4255 33.2218 89.5453 32.819 90.3516 32.0135C91.1759 31.208 91.588 29.9729 91.588 28.3083V16.4675H94.0337V28.2814C94.0337 29.8387 93.7202 31.1543 93.093 32.2283C92.4659 33.2844 91.6148 34.072 90.5398 34.5911C89.4826 35.1102 88.2911 35.3698 86.9652 35.3698C85.6393 35.3698 84.4388 35.1102 83.3637 34.5911C82.3065 34.072 81.4644 33.2844 80.8373 32.2283C80.2281 31.1543 79.9235 29.8387 79.9235 28.2814V16.4675H82.3693Z" fill="#2E3192"/>
<path d="M112.842 35.1818H110.396L100.56 20.2802V35.1818H98.1137V16.4406H100.56L110.396 31.3154V16.4406H112.842V35.1818Z" fill="#2E3192"/>
<path d="M130.127 16.4675L124.026 28.1203V35.1818H121.58V28.1203L115.453 16.4675H118.167L122.79 25.9455L127.413 16.4675H130.127Z" fill="#2E3192"/>
<path d="M141.2 35.3698C139.462 35.3698 137.876 34.967 136.443 34.1615C135.009 33.3381 133.872 32.2015 133.03 30.7516C132.205 29.2838 131.793 27.637 131.793 25.8112C131.793 23.9854 132.205 22.3476 133.03 20.8977C133.872 19.4299 135.009 18.2933 136.443 17.4878C137.876 16.6644 139.462 16.2527 141.2 16.2527C142.956 16.2527 144.551 16.6644 145.984 17.4878C147.417 18.2933 148.546 19.421 149.371 20.8708C150.195 22.3207 150.607 23.9675 150.607 25.8112C150.607 27.6549 150.195 29.3017 149.371 30.7516C148.546 32.2015 147.417 33.3381 145.984 34.1615C144.551 34.967 142.956 35.3698 141.2 35.3698ZM141.2 33.2486C142.508 33.2486 143.682 32.9443 144.721 32.3357C145.778 31.7271 146.602 30.859 147.194 29.7313C147.803 28.6036 148.107 27.2969 148.107 25.8112C148.107 24.3076 147.803 23.0009 147.194 21.8911C146.602 20.7634 145.787 19.8953 144.748 19.2867C143.709 18.6781 142.526 18.3738 141.2 18.3738C139.874 18.3738 138.692 18.6781 137.652 19.2867C136.613 19.8953 135.789 20.7634 135.18 21.8911C134.588 23.0009 134.293 24.3076 134.293 25.8112C134.293 27.2969 134.588 28.6036 135.18 29.7313C135.789 30.859 136.613 31.7271 137.652 32.3357C138.709 32.9443 139.892 33.2486 141.2 33.2486Z" fill="#2E3192"/>
<path d="M159.668 16.4675C161.71 16.4675 163.475 16.8523 164.963 17.622C166.468 18.3738 167.614 19.4568 168.403 20.8708C169.209 22.2849 169.612 23.9496 169.612 25.8649C169.612 27.7802 169.209 29.4449 168.403 30.859C167.614 32.2552 166.468 33.3292 164.963 34.081C163.475 34.8149 161.71 35.1818 159.668 35.1818H153.836V16.4675H159.668ZM159.668 33.1681C162.087 33.1681 163.932 32.5326 165.204 31.2617C166.477 29.9729 167.113 28.174 167.113 25.8649C167.113 23.5379 166.468 21.7211 165.178 20.4144C163.905 19.1077 162.069 18.4544 159.668 18.4544H156.281V33.1681H159.668Z" fill="#2E3192"/>
<path d="M188.497 35.3698C186.759 35.3698 185.173 34.967 183.74 34.1615C182.306 33.3381 181.168 32.2015 180.326 30.7516C179.502 29.2838 179.09 27.637 179.09 25.8112C179.09 23.9854 179.502 22.3476 180.326 20.8977C181.168 19.4299 182.306 18.2933 183.74 17.4878C185.173 16.6644 186.759 16.2527 188.497 16.2527C190.253 16.2527 191.847 16.6644 193.281 17.4878C194.714 18.2933 195.843 19.421 196.667 20.8708C197.491 22.3207 197.904 23.9675 197.904 25.8112C197.904 27.6549 197.491 29.3017 196.667 30.7516C195.843 32.2015 194.714 33.3381 193.281 34.1615C191.847 34.967 190.253 35.3698 188.497 35.3698ZM188.497 33.2486C189.805 33.2486 190.978 32.9443 192.018 32.3357C193.075 31.7271 193.899 30.859 194.49 29.7313C195.099 28.6036 195.404 27.2969 195.404 25.8112C195.404 24.3076 195.099 23.0009 194.49 21.8911C193.899 20.7634 193.084 19.8953 192.044 19.2867C191.005 18.6781 189.823 18.3738 188.497 18.3738C187.171 18.3738 185.988 18.6781 184.949 19.2867C183.91 19.8953 183.086 20.7634 182.476 21.8911C181.885 23.0009 181.589 24.3076 181.589 25.8112C181.589 27.2969 181.885 28.6036 182.476 29.7313C183.086 30.859 183.91 31.7271 184.949 32.3357C186.006 32.9443 187.189 33.2486 188.497 33.2486Z" fill="#2E3192"/>
<path d="M213.657 21.9448C213.657 23.5021 213.119 24.7999 212.044 25.8381C210.987 26.8584 209.366 27.3685 207.18 27.3685H203.578V35.1818H201.132V16.4675H207.18C209.294 16.4675 210.897 16.9776 211.99 17.9979C213.101 19.0182 213.657 20.3339 213.657 21.9448ZM207.18 25.3548C208.541 25.3548 209.545 25.0594 210.19 24.4687C210.835 23.878 211.157 23.0367 211.157 21.9448C211.157 19.6358 209.831 18.4812 207.18 18.4812H203.578V25.3548H207.18Z" fill="#2E3192"/>
<path d="M228.227 16.4675V18.4544H223.12V35.1818H220.674V18.4544H215.541V16.4675H228.227Z" fill="#2E3192"/>
<path d="M239.73 35.3698C237.992 35.3698 236.407 34.967 234.973 34.1615C233.54 33.3381 232.402 32.2015 231.56 30.7516C230.736 29.2838 230.324 27.637 230.324 25.8112C230.324 23.9854 230.736 22.3476 231.56 20.8977C232.402 19.4299 233.54 18.2933 234.973 17.4878C236.407 16.6644 237.992 16.2527 239.73 16.2527C241.486 16.2527 243.081 16.6644 244.514 17.4878C245.948 18.2933 247.077 19.421 247.901 20.8708C248.725 22.3207 249.137 23.9675 249.137 25.8112C249.137 27.6549 248.725 29.3017 247.901 30.7516C247.077 32.2015 245.948 33.3381 244.514 34.1615C243.081 34.967 241.486 35.3698 239.73 35.3698ZM239.73 33.2486C241.038 33.2486 242.212 32.9443 243.251 32.3357C244.308 31.7271 245.133 30.859 245.724 29.7313C246.333 28.6036 246.638 27.2969 246.638 25.8112C246.638 24.3076 246.333 23.0009 245.724 21.8911C245.133 20.7634 244.317 19.8953 243.278 19.2867C242.239 18.6781 241.056 18.3738 239.73 18.3738C238.404 18.3738 237.222 18.6781 236.183 19.2867C235.143 19.8953 234.319 20.7634 233.71 21.8911C233.119 23.0009 232.823 24.3076 232.823 25.8112C232.823 27.2969 233.119 28.6036 233.71 29.7313C234.319 30.859 235.143 31.7271 236.183 32.3357C237.24 32.9443 238.422 33.2486 239.73 33.2486Z" fill="#2E3192"/>
<path d="M271.368 16.6017V35.1818H268.922V21.3273L262.74 35.1818H261.02L254.812 21.3004V35.1818H252.366V16.6017H255L261.88 31.9598L268.761 16.6017H271.368Z" fill="#2E3192"/>
</svg>
